<svg xmlns="http://www.w3.org/2000/svg" version="1.1" xmlns:xlink="http://www.w3.org/1999/xlink" xmlns:svgjs="http://svgjs.com/svgjs" width="1440" height="560" preserveAspectRatio="none" viewBox="0 0 1440 560"><g mask="url(&quot;#SvgjsMask1048&quot;)" fill="none"><rect width="1440" height="560" x="0" y="0" fill="rgba(34, 32, 34, 1)"></rect><path d="M161 127L160 421" stroke-width="8" stroke="url(#SvgjsLinearGradient1049)" stroke-linecap="round" class="Up"></path><path d="M980 2L979 321" stroke-width="8" stroke="url(#SvgjsLinearGradient1050)" stroke-linecap="round" class="Down"></path><path d="M1190 202L1189 384" stroke-width="8" stroke="url(#SvgjsLinearGradient1051)" stroke-linecap="round" class="Up"></path><path d="M127 551L126 294" stroke-width="10" stroke="url(#SvgjsLinearGradient1050)" stroke-linecap="round" class="Down"></path><path d="M385 125L384 322" stroke-width="8" stroke="url(#SvgjsLinearGradient1049)" stroke-linecap="round" class="Up"></path><path d="M367 205L366 354" stroke-width="8" stroke="url(#SvgjsLinearGradient1049)" stroke-linecap="round" class="Up"></path><path d="M208 477L207 247" stroke-width="6" stroke="url(#SvgjsLinearGradient1052)" stroke-linecap="round" class="Down"></path><path d="M942 375L941 20" stroke-width="6" stroke="url(#SvgjsLinearGradient1050)" stroke-linecap="round" class="Down"></path><path d="M715 399L714 213" stroke-width="8" stroke="url(#SvgjsLinearGradient1049)" stroke-linecap="round" class="Up"></path><path d="M1044 465L1043 835" stroke-width="10" stroke="url(#SvgjsLinearGradient1049)" stroke-linecap="round" class="Up"></path><path d="M1155 73L1154 -167" stroke-width="8" stroke="url(#SvgjsLinearGradient1051)" stroke-linecap="round" class="Up"></path><path d="M766 248L765 456" stroke-width="6" stroke="url(#SvgjsLinearGradient1050)" stroke-linecap="round" class="Down"></path><path d="M568 371L567 25" stroke-width="8" stroke="url(#SvgjsLinearGradient1049)" stroke-linecap="round" class="Up"></path><path d="M121 237L120 -30" stroke-width="6" stroke="url(#SvgjsLinearGradient1052)" stroke-linecap="round" class="Down"></path><path d="M204 329L203 635" stroke-width="10" stroke="url(#SvgjsLinearGradient1051)" stroke-linecap="round" class="Up"></path><path d="M570 510L569 697" stroke-width="8" stroke="url(#SvgjsLinearGradient1049)" stroke-linecap="round" class="Up"></path><path d="M1217 373L1216 707" stroke-width="8" stroke="url(#SvgjsLinearGradient1050)" stroke-linecap="round" class="Down"></path><path d="M1146 158L1145 -73" stroke-width="10" stroke="url(#SvgjsLinearGradient1050)" stroke-linecap="round" class="Down"></path><path d="M554 407L553 786" stroke-width="8" stroke="url(#SvgjsLinearGradient1050)" stroke-linecap="round" class="Down"></path><path d="M470 129L469 422" stroke-width="8" stroke="url(#SvgjsLinearGradient1049)" stroke-linecap="round" class="Up"></path><path d="M1070 513L1069 150" stroke-width="6" stroke="url(#SvgjsLinearGradient1050)" stroke-linecap="round" class="Down"></path><path d="M378 268L377 -69" stroke-width="8" stroke="url(#SvgjsLinearGradient1051)" stroke-linecap="round" class="Up"></path><path d="M673 27L672 -303" stroke-width="6" stroke="url(#SvgjsLinearGradient1049)" stroke-linecap="round" class="Up"></path><path d="M691 462L690 305" stroke-width="6" stroke="url(#SvgjsLinearGradient1049)" stroke-linecap="round" class="Up"></path><path d="M450 178L449 410" stroke-width="10" stroke="url(#SvgjsLinearGradient1051)" stroke-linecap="round" class="Up"></path><path d="M975 386L974 533" stroke-width="6" stroke="url(#SvgjsLinearGradient1050)" stroke-linecap="round" class="Down"></path><path d="M913 330L912 -3" stroke-width="6" stroke="url(#SvgjsLinearGradient1052)" stroke-linecap="round" class="Down"></path><path d="M1336 102L1335 279" stroke-width="6" stroke="url(#SvgjsLinearGradient1049)" stroke-linecap="round" class="Up"></path><path d="M611 441L610 661" stroke-width="10" stroke="url(#SvgjsLinearGradient1051)" stroke-linecap="round" class="Up"></path><path d="M39 428L38 100" stroke-width="6" stroke="url(#SvgjsLinearGradient1049)" stroke-linecap="round" class="Up"></path><path d="M366 294L365 113" stroke-width="6" stroke="url(#SvgjsLinearGradient1051)" stroke-linecap="round" class="Up"></path><path d="M755 183L754 446" stroke-width="8" stroke="url(#SvgjsLinearGradient1052)" stroke-linecap="round" class="Down"></path><path d="M1061 203L1060 -7" stroke-width="10" stroke="url(#SvgjsLinearGradient1049)" stroke-linecap="round" class="Up"></path><path d="M140 348L139 528" stroke-width="8" stroke="url(#SvgjsLinearGradient1050)" stroke-linecap="round" class="Down"></path><path d="M249 173L248 373" stroke-width="6" stroke="url(#SvgjsLinearGradient1049)" stroke-linecap="round" class="Up"></path><path d="M1120 30L1119 -141" stroke-width="6" stroke="url(#SvgjsLinearGradient1052)" stroke-linecap="round" class="Down"></path></g><defs><mask id="SvgjsMask1048"><rect width="1440" height="560" fill="#ffffff"></rect></mask><linearGradient x1="0%" y1="100%" x2="0%" y2="0%" id="SvgjsLinearGradient1049"><stop stop-color="rgba(76, 73, 71, 0)" offset="0"></stop><stop stop-color="rgba(76, 73, 71, 1)" offset="1"></stop></linearGradient><linearGradient x1="0%" y1="0%" x2="0%" y2="100%" id="SvgjsLinearGradient1050"><stop stop-color="rgba(76, 73, 71, 0)" offset="0"></stop><stop stop-color="rgba(76, 73, 71, 1)" offset="1"></stop></linearGradient><linearGradient x1="0%" y1="100%" x2="0%" y2="0%" id="SvgjsLinearGradient1051"><stop stop-color="rgba(110, 173, 58, 0)" offset="0"></stop><stop stop-color="rgba(110, 173, 58, 1)" offset="1"></stop></linearGradient><linearGradient x1="0%" y1="0%" x2="0%" y2="100%" id="SvgjsLinearGradient1052"><stop stop-color="rgba(110, 173, 58, 0)" offset="0"></stop><stop stop-color="rgba(110, 173, 58, 1)" offset="1"></stop></linearGradient></defs></svg>